<?xml version="1.0" standalone="no"?>
<!DOCTYPE svg PUBLIC "-//W3C//DTD SVG 20010904//EN"
 "http://www.w3.org/TR/2001/REC-SVG-20010904/DTD/svg10.dtd">
<svg version="1.0" xmlns="http://www.w3.org/2000/svg"
 width="700.000000pt" height="700.000000pt" viewBox="0 0 700.000000 700.000000"
 preserveAspectRatio="xMidYMid meet">
<metadata>
Created by potrace 1.11, written by Peter Selinger 2001-2013
</metadata>
<g transform="translate(0.000000,700.000000) scale(0.100000,-0.100000)"
fill="#000000" stroke="none">
<path d="M4545 6394 c-339 -53 -610 -188 -840 -419 -236 -236 -383 -532 -421
-845 -3 -25 -7 -56 -10 -70 -6 -34 -5 -289 1 -320 2 -13 -2 -35 -11 -48 -15
-24 -19 -24 -98 -18 -87 7 -103 9 -241 32 -49 9 -99 17 -110 19 -11 2 -60 13
-110 24 -49 12 -99 24 -110 26 -46 11 -272 77 -290 85 -11 5 -40 16 -65 24
-113 36 -317 126 -485 212 -443 227 -850 550 -1192 946 -130 152 -156 148
-248 -38 -78 -158 -124 -312 -142 -484 -13 -118 -7 -336 12 -430 3 -14 7 -35
9 -47 22 -108 85 -284 139 -388 62 -120 183 -288 246 -342 14 -12 23 -25 19
-28 -9 -10 -166 44 -265 92 -97 46 -118 48 -158 19 -18 -13 -20 -26 -19 -108
0 -89 11 -225 19 -238 2 -4 6 -20 9 -36 12 -67 18 -91 33 -134 8 -25 19 -53
24 -62 5 -10 9 -23 9 -28 0 -6 9 -30 20 -52 11 -23 20 -45 20 -50 0 -4 25 -51
56 -105 150 -259 340 -446 607 -594 l72 -40 -113 5 c-63 3 -118 9 -123 12 -20
12 -91 6 -109 -11 -30 -27 -32 -60 -7 -132 25 -69 91 -209 129 -273 81 -133
238 -310 360 -404 134 -102 297 -191 443 -241 89 -29 95 -31 177 -48 32 -6 58
-14 58 -17 0 -12 -228 -144 -343 -199 -194 -91 -430 -172 -602 -207 -98 -20
-186 -35 -233 -40 -32 -4 -70 -8 -87 -11 -16 -2 -131 -6 -255 -9 -246 -7 -273
-12 -304 -65 -20 -34 -17 -86 8 -123 23 -36 282 -174 486 -260 36 -15 79 -34
95 -41 142 -64 583 -194 745 -220 35 -6 120 -20 175 -30 17 -2 53 -7 80 -10
28 -4 61 -8 75 -10 177 -27 815 -27 958 0 9 1 42 6 73 9 31 4 67 9 79 11 12 2
43 7 68 10 26 3 54 7 62 10 8 3 29 7 45 9 164 22 621 154 780 226 11 5 45 19
75 32 174 71 462 228 645 352 359 242 688 558 971 931 65 86 215 311 256 385
14 25 42 73 61 107 69 120 178 354 246 524 67 171 182 554 198 664 2 17 8 46
13 65 5 19 12 53 15 75 3 22 10 65 15 95 14 83 23 156 35 275 3 22 7 121 11
220 4 119 11 197 21 229 17 52 58 99 172 196 36 30 105 97 155 149 114 118
112 116 166 181 25 30 47 57 50 60 3 3 36 46 72 97 81 111 92 150 53 188 -34
35 -52 32 -225 -35 -74 -28 -173 -62 -220 -75 -47 -12 -94 -26 -105 -31 -17
-6 -16 -2 7 22 90 99 114 127 163 195 64 89 143 234 179 333 37 98 39 119 16
149 -37 47 -57 44 -222 -42 -191 -100 -322 -153 -532 -216 -142 -43 -211 -32
-296 47 -40 37 -138 108 -150 108 -5 0 -10 3 -10 8 0 4 -10 12 -23 18 -12 6
-58 30 -102 53 -99 52 -285 115 -402 137 -119 22 -390 27 -508 8z"/>
</g>
</svg>
